<?xml version="1.0" encoding="UTF-8" standalone="no"?>
<!DOCTYPE svg PUBLIC "-//W3C//DTD SVG 1.1//EN" "http://www.w3.org/Graphics/SVG/1.1/DTD/svg11.dtd">
<svg width="100%" height="100%" viewBox="0 0 61 91" version="1.1" xmlns="http://www.w3.org/2000/svg" xmlns:xlink="http://www.w3.org/1999/xlink" xml:space="preserve" xmlns:serif="http://www.serif.com/" style="fill-rule:evenodd;clip-rule:evenodd;stroke-linejoin:round;stroke-miterlimit:2;">
    <g id="Group_272" transform="matrix(1,0,0,1,0.878,0.972)">
        <g id="Group_406">
            <g id="Group_401">
                <g id="Group_277">
                    <g id="Group_2721" serif:id="Group_272">
                        <g id="Path_271" transform="matrix(1,0,0,1,-270.812,-514.117)">
                            <g id="Group_265">
                                <path id="Path_2711" serif:id="Path_271" d="M329.475,514.117L329.475,602.8L270.812,602.8L270.812,514.117L329.475,514.117" style="fill:rgb(26,24,24);fill-rule:nonzero;"/>
                            </g>
                        </g>
                        <g id="Rectangle_186" transform="matrix(1,0,0,1,2.951,3.152)">
                            <rect x="0" y="0" width="52.337" height="14.706" style="fill:white;"/>
                        </g>
                        <g id="Rectangle_187" transform="matrix(1,0,0,1,2.928,21.065)">
                            <rect x="0" y="0" width="52.367" height="54.062" style="fill:white;"/>
                        </g>
                        <g id="Group_266" transform="matrix(1,0,0,1,2.939,78.131)">
                            <g id="Path_272" transform="matrix(1,0,0,1,-272.743,-565.375)">
                                <path d="M272.743,572.732L272.743,565.554L283.255,565.554L283.255,567.234L276.966,567.234L276.966,568.26L282.289,568.26L282.289,569.934L276.966,569.934L276.966,571.058L283.5,571.058L283.5,572.732L272.743,572.732Z" style="fill:white;fill-rule:nonzero;"/>
                            </g>
                            <g id="Path_273" transform="matrix(1,0,0,1,-268.517,-565.436)">
                                <path d="M288.2,567.706C288.097,567.448 287.865,567.264 287.591,567.22C287.235,567.124 286.867,567.079 286.499,567.088C285.572,567.088 285.155,567.239 285.155,567.507C285.155,568.568 292.568,567.907 292.568,570.514C292.568,572.175 290.077,572.988 286.536,572.988C283.136,572.988 280.917,571.881 280.827,570.588L284.871,570.588C285.005,570.874 285.263,571.083 285.571,571.154C285.959,571.278 286.364,571.339 286.771,571.335C287.826,571.335 288.528,571.148 288.528,570.808C288.528,569.72 281.109,570.466 281.109,567.73C281.109,566.206 283.475,565.44 286.7,565.44C290.278,565.44 291.907,566.455 292.216,567.71L288.2,567.706Z" style="fill:white;fill-rule:nonzero;"/>
                            </g>
                            <g id="Path_274" transform="matrix(1,0,0,1,-263.766,-565.374)">
                                <path d="M294.147,568.667L295.81,568.667C297.11,568.667 297.817,568.477 297.817,567.982C297.817,567.487 297.103,567.233 296.117,567.233L294.148,567.233L294.147,568.667ZM294.147,570.231L294.147,572.731L289.924,572.731L289.924,565.553L296.011,565.553C300.303,565.553 301.72,566.209 301.72,567.604C301.72,568.434 301.061,569.123 299.555,569.365C300.915,569.638 301.738,569.808 301.738,571.256C301.738,572.189 301.685,572.514 302.184,572.514L302.184,572.732L297.9,572.732C297.734,572.335 297.661,571.905 297.688,571.476C297.688,570.534 297.402,570.231 295.433,570.231L294.147,570.231Z" style="fill:white;fill-rule:nonzero;"/>
                            </g>
                            <g id="Path_275" transform="matrix(1,0,0,1,-258.827,-565.374)">
                                <path d="M303.6,567.233L303.6,568.433L305.36,568.433C306.202,568.433 306.814,568.217 306.814,567.806C306.814,567.244 305.981,567.232 305.092,567.232L303.6,567.233ZM303.6,569.733L303.6,571.056L305.444,571.056C306.49,571.056 307.276,570.934 307.276,570.398C307.276,569.771 306.294,569.733 304.945,569.733L303.6,569.733ZM299.38,572.733L299.38,565.555L305.541,565.555C308.441,565.555 310.751,565.945 310.751,567.365C310.751,568.105 309.889,568.644 309.069,568.924C310.464,569.124 311.211,569.798 311.211,570.568C311.211,572.168 309.011,572.733 305.66,572.733L299.38,572.733Z" style="fill:white;fill-rule:nonzero;"/>
                            </g>
                        </g>
                        <g id="Group_270" transform="matrix(1,0,0,1,7.679,24.082)">
                            <g id="Path_276" transform="matrix(1,0,0,1,-275.856,-529.935)">
                                <g id="Group_267">
                                    <path id="Path_2761" serif:id="Path_276" d="M288.972,559.7L288.85,543.99L297.405,557.613L288.972,559.7ZM309.056,553.747C308.387,554.072 307.687,554.327 306.966,554.508C301.58,555.843 297.754,552.915 296.272,547.791C295.183,544.03 295.835,540.721 298.384,538.685L292.178,529.931L278.6,533.3L275.857,577.9L288.938,574.662L288.892,568.88L302.192,565.573L305.343,570.591L318.643,567.291L309.055,553.747" style="fill:rgb(26,24,24);fill-rule:nonzero;"/>
                                </g>
                            </g>
                            <g id="Path_277" transform="matrix(1,0,0,1,-267.899,-526.174)">
                                <g id="Group_268">
                                    <path id="Path_2771" serif:id="Path_277" d="M291.58,543.231C292.601,546.743 294.663,549.402 298.35,548.482C298.81,548.368 299.255,548.199 299.673,547.976L291.986,537.133C290.832,538.627 290.891,540.867 291.58,543.233" style="fill:rgb(26,24,24);fill-rule:nonzero;"/>
                                </g>
                            </g>
                            <g id="Path_278" transform="matrix(1,0,0,1,-268.125,-527.605)">
                                <g id="Group_269">
                                    <path id="Path_2781" serif:id="Path_278" d="M294.824,536.979C298.524,536.061 300.583,538.718 301.597,542.235C302.48,545.268 302.332,548.101 299.897,549.409L301.319,551.422C305.041,549.583 306.133,545.812 304.863,541.422C303.376,536.314 299.557,533.382 294.163,534.722C292.887,535.013 291.688,535.573 290.646,536.365L292.206,538.571C292.864,537.753 293.788,537.192 294.817,536.985" style="fill:rgb(26,24,24);fill-rule:nonzero;"/>
                                </g>
                            </g>
                        </g>
                        <g id="Group_271" transform="matrix(1,0,0,1,4.414,6.187)">
                            <g id="Path_279" transform="matrix(1,0,0,1,-273.711,-518.129)">
                                <path d="M273.711,526.622L275.072,518.281L276.422,518.281L277.75,526.622L276.671,526.622L276.403,524.772L275,524.772L274.723,526.622L273.711,526.622ZM275.689,519.887L275.674,519.887L275.208,523.487L276.185,523.487L275.689,519.887Z" style="fill:rgb(26,24,24);fill-rule:nonzero;"/>
                            </g>
                            <g id="Path_280" transform="matrix(1,0,0,1,-272.152,-518.129)">
                                <path d="M276.7,518.28L278.411,518.28C278.708,518.267 278.999,518.367 279.226,518.559C279.456,518.78 279.622,519.059 279.707,519.367C279.836,519.79 279.916,520.226 279.943,520.667C279.984,521.18 280.005,521.759 280.005,522.404L280.005,523.161C280.005,523.45 279.993,523.752 279.971,524.068C279.947,524.38 279.905,524.69 279.846,524.997C279.79,525.28 279.697,525.554 279.57,525.813C279.456,526.04 279.293,526.239 279.093,526.395C278.884,526.551 278.628,526.631 278.367,526.622L276.7,526.622L276.7,518.28ZM277.726,525.34L278.221,525.34C278.363,525.343 278.499,525.286 278.596,525.183C278.712,525.038 278.79,524.866 278.824,524.683C278.886,524.389 278.923,524.09 278.935,523.789C278.955,523.422 278.967,522.979 278.967,522.455C278.967,522.07 278.967,521.703 278.955,521.355C278.952,521.048 278.927,520.741 278.879,520.437C278.848,520.213 278.775,519.997 278.663,519.801C278.581,519.653 278.424,519.563 278.255,519.567L277.727,519.567L277.726,525.34Z" style="fill:rgb(26,24,24);fill-rule:nonzero;"/>
                            </g>
                            <g id="Path_281" transform="matrix(1,0,0,1,-270.743,-518.129)">
                                <path d="M282.722,518.28L282.722,524.195C282.723,524.507 282.695,524.818 282.637,525.124C282.588,525.411 282.494,525.689 282.358,525.946C282.236,526.179 282.062,526.381 281.848,526.534C281.616,526.69 281.34,526.769 281.061,526.759C280.545,526.785 280.056,526.516 279.802,526.066C279.501,525.49 279.359,524.844 279.391,524.195L279.391,518.28L280.417,518.28L280.417,524.08C280.393,524.455 280.452,524.83 280.589,525.18C280.661,525.377 280.849,525.508 281.059,525.508C281.283,525.508 281.482,525.357 281.541,525.14C281.662,524.799 281.716,524.438 281.699,524.076L281.699,518.276L282.722,518.28Z" style="fill:rgb(26,24,24);fill-rule:nonzero;"/>
                            </g>
                            <g id="Path_282" transform="matrix(1,0,0,1,-269.311,-518.129)">
                                <path d="M282.133,526.622L282.133,518.28L283.156,518.28L283.156,525.236L284.691,525.236L284.691,526.621L282.133,526.622Z" style="fill:rgb(26,24,24);fill-rule:nonzero;"/>
                            </g>
                            <g id="Path_283" transform="matrix(1,0,0,1,-268.548,-518.129)">
                                <path d="M286.9,518.28L286.9,519.667L285.761,519.667L285.761,526.622L284.738,526.622L284.738,519.667L283.596,519.667L283.596,518.28L286.9,518.28Z" style="fill:rgb(26,24,24);fill-rule:nonzero;"/>
                            </g>
                            <g id="Path_284" transform="matrix(1,0,0,1,-267.295,-518.176)">
                                <path d="M289.16,524.392C289.175,524.826 289.123,525.26 289.005,525.678C288.932,525.949 288.794,526.199 288.605,526.406C288.455,526.564 288.263,526.677 288.051,526.73C287.857,526.779 287.657,526.804 287.457,526.805C287.183,526.819 286.912,526.742 286.687,526.586C286.484,526.434 286.328,526.228 286.235,525.992C286.125,525.714 286.056,525.422 286.029,525.124C285.996,524.78 285.988,524.435 286.003,524.09L287.028,524.09C287.028,524.29 287.028,524.478 287.04,524.658C287.046,524.816 287.071,524.972 287.112,525.124C287.139,525.244 287.198,525.354 287.284,525.442C287.373,525.523 287.491,525.565 287.611,525.558C287.781,525.561 287.936,525.457 287.998,525.298C288.093,525.082 288.136,524.847 288.126,524.611C288.133,524.386 288.081,524.163 287.974,523.964C287.869,523.774 287.741,523.597 287.592,523.439C287.437,523.273 287.274,523.109 287.097,522.939C286.911,522.765 286.743,522.572 286.597,522.363C286.436,522.125 286.307,521.866 286.213,521.594C286.105,521.25 286.054,520.891 286.062,520.531C286.061,520.225 286.086,519.92 286.138,519.619C286.182,519.358 286.27,519.106 286.4,518.875C286.52,518.667 286.692,518.495 286.9,518.375C287.138,518.244 287.408,518.179 287.68,518.189C288.133,518.165 288.562,518.397 288.79,518.789C289.068,519.383 289.177,520.043 289.105,520.695L288.105,520.695C288.105,520.54 288.099,520.389 288.088,520.237C288.078,520.102 288.055,519.968 288.019,519.837C287.991,519.732 287.943,519.634 287.876,519.548C287.815,519.475 287.724,519.434 287.629,519.438C287.468,519.435 287.317,519.522 287.239,519.663C287.132,519.867 287.083,520.097 287.099,520.327C287.092,520.56 287.144,520.791 287.251,520.998C287.354,521.184 287.483,521.355 287.635,521.505C287.789,521.659 287.953,521.815 288.128,521.974C288.315,522.138 288.483,522.324 288.628,522.527C288.794,522.761 288.924,523.018 289.012,523.291C289.122,523.647 289.172,524.019 289.16,524.392Z" style="fill:rgb(26,24,24);fill-rule:nonzero;"/>
                            </g>
                            <g id="Path_285" transform="matrix(1,0,0,1,-265.455,-518.176)">
                                <path d="M291.2,526.806C290.838,526.829 290.484,526.697 290.226,526.442C289.978,526.168 289.804,525.834 289.721,525.474C289.612,525.021 289.551,524.557 289.54,524.091C289.519,523.577 289.513,523.045 289.513,522.499C289.513,521.953 289.519,521.409 289.54,520.899C289.55,520.435 289.611,519.974 289.721,519.524C289.805,519.165 289.979,518.833 290.226,518.559C290.784,518.076 291.621,518.076 292.179,518.559C292.425,518.833 292.598,519.165 292.679,519.524C292.79,519.974 292.852,520.435 292.863,520.899C292.881,521.414 292.89,521.947 292.89,522.499C292.89,523.051 292.881,523.582 292.863,524.091C292.851,524.557 292.79,525.021 292.679,525.474C292.599,525.834 292.426,526.168 292.179,526.442C291.92,526.697 291.563,526.83 291.2,526.806ZM291.2,525.559C291.339,525.563 291.47,525.495 291.546,525.379C291.654,525.214 291.723,525.027 291.746,524.831C291.8,524.517 291.83,524.199 291.836,523.88C291.847,523.49 291.856,523.029 291.856,522.499C291.856,521.969 291.847,521.506 291.836,521.118C291.83,520.799 291.8,520.48 291.746,520.165C291.723,519.969 291.654,519.782 291.546,519.617C291.467,519.504 291.338,519.437 291.201,519.437C291.064,519.437 290.935,519.504 290.856,519.617C290.75,519.783 290.682,519.97 290.656,520.165C290.606,520.48 290.577,520.799 290.569,521.118C290.555,521.506 290.549,521.968 290.549,522.499C290.549,523.03 290.555,523.49 290.569,523.88C290.577,524.199 290.606,524.516 290.656,524.831C290.682,525.026 290.75,525.213 290.856,525.379C290.932,525.494 291.062,525.562 291.2,525.559Z" style="fill:rgb(26,24,24);fill-rule:nonzero;"/>
                            </g>
                            <g id="Path_286" transform="matrix(1,0,0,1,-264.014,-518.129)">
                                <path d="M292.272,526.622L292.272,518.28L293.657,518.28L294.957,524.056L294.971,524.056L294.971,518.28L295.926,518.28L295.926,526.621L294.58,526.621L293.242,520.521L293.23,520.521L293.23,526.621L292.272,526.622Z" style="fill:rgb(26,24,24);fill-rule:nonzero;"/>
                            </g>
                            <g id="Path_287" transform="matrix(1,0,0,1,-262.459,-518.129)">
                                <path d="M295.247,526.622L295.247,518.28L296.269,518.28L296.269,525.236L297.8,525.236L297.8,526.621L295.247,526.622Z" style="fill:rgb(26,24,24);fill-rule:nonzero;"/>
                            </g>
                            <g id="Path_288" transform="matrix(1,0,0,1,-261.731,-518.129)">
                                <path d="M297.926,523.733L296.641,518.28L297.758,518.28L298.493,521.804L299.276,518.28L300.322,518.28L298.949,523.733L298.949,526.621L297.926,526.621L297.926,523.733Z" style="fill:rgb(26,24,24);fill-rule:nonzero;"/>
                            </g>
                            <g id="Path_289" transform="matrix(1,0,0,1,-259.821,-518.144)">
                                <path d="M300.3,519.55C300.478,519.373 300.643,519.184 300.795,518.984C300.963,518.757 301.105,518.511 301.217,518.252L302.124,518.252L302.124,526.638L301.1,526.638L301.1,520.187C300.982,520.362 300.852,520.529 300.713,520.687C300.576,520.839 300.436,520.987 300.299,521.121L300.3,519.55Z" style="fill:rgb(26,24,24);fill-rule:nonzero;"/>
                            </g>
                            <g id="Path_290" transform="matrix(1,0,0,1,-258.854,-518.181)">
                                <path d="M303.514,526.78C303.102,526.801 302.71,526.596 302.491,526.246C302.221,525.714 302.102,525.118 302.147,524.523C302.147,524.267 302.153,524.023 302.171,523.791C302.183,523.574 302.215,523.358 302.265,523.147C302.311,522.964 302.382,522.789 302.477,522.626C302.567,522.474 302.692,522.345 302.842,522.251L302.842,522.228C302.711,522.175 302.597,522.085 302.515,521.969C302.427,521.845 302.359,521.707 302.315,521.561C302.261,521.389 302.228,521.212 302.215,521.033C302.197,520.837 302.188,520.627 302.188,520.403C302.147,519.821 302.262,519.239 302.521,518.716C302.742,518.382 303.116,518.181 303.516,518.181C303.916,518.181 304.29,518.382 304.511,518.716C304.77,519.239 304.886,519.821 304.846,520.403C304.846,520.627 304.835,520.837 304.82,521.033C304.805,521.212 304.77,521.39 304.715,521.561C304.671,521.707 304.604,521.845 304.515,521.969C304.433,522.085 304.319,522.175 304.188,522.228L304.188,522.251C304.337,522.346 304.462,522.475 304.553,522.626C304.647,522.789 304.718,522.964 304.765,523.147C304.816,523.358 304.848,523.574 304.859,523.791C304.877,524.022 304.883,524.267 304.883,524.523C304.928,525.118 304.808,525.714 304.537,526.246C304.318,526.595 303.926,526.8 303.514,526.78ZM303.514,522.924C303.407,522.924 303.309,522.988 303.267,523.087C303.208,523.214 303.167,523.349 303.145,523.487C303.121,523.648 303.107,523.811 303.104,523.974L303.104,524.417C303.104,524.545 303.11,524.664 303.119,524.798C303.127,524.924 303.147,525.049 303.178,525.171C303.199,525.272 303.24,525.368 303.3,525.453C303.35,525.522 303.431,525.562 303.516,525.56C303.603,525.562 303.685,525.522 303.737,525.453C303.796,525.368 303.838,525.272 303.859,525.171C303.891,525.049 303.911,524.924 303.918,524.798C303.927,524.664 303.933,524.539 303.933,524.417L303.933,523.974C303.93,523.811 303.916,523.648 303.892,523.487C303.872,523.348 303.831,523.213 303.769,523.087C303.726,522.986 303.624,522.921 303.514,522.924ZM303.514,519.406C303.432,519.406 303.356,519.449 303.314,519.52C303.259,519.606 303.221,519.702 303.201,519.802C303.174,519.919 303.157,520.038 303.148,520.157C303.142,520.282 303.139,520.396 303.139,520.499C303.139,520.602 303.142,520.723 303.148,520.86C303.156,520.983 303.172,521.106 303.198,521.227C303.215,521.33 303.253,521.428 303.309,521.515C303.351,521.585 303.427,521.628 303.509,521.628C303.593,521.63 303.671,521.587 303.715,521.515C303.771,521.427 303.809,521.329 303.828,521.227C303.853,521.106 303.868,520.983 303.874,520.86C303.883,520.731 303.885,520.61 303.885,520.499C303.885,520.388 303.885,520.281 303.874,520.157C303.867,520.038 303.851,519.919 303.825,519.802C303.803,519.702 303.764,519.606 303.709,519.52C303.668,519.45 303.594,519.407 303.514,519.405L303.514,519.406Z" style="fill:rgb(26,24,24);fill-rule:nonzero;"/>
                            </g>
                            <g id="Path_291" transform="matrix(1,0,0,1,-257.809,-517.573)">
                                <path d="M305.3,519.344L306.052,519.344L306.052,521.62L307.2,521.62L307.2,522.9L306.052,522.9L306.052,525.174L305.3,525.174L305.3,522.9L304.146,522.9L304.146,521.62L305.3,521.62L305.3,519.344Z" style="fill:rgb(26,24,24);fill-rule:nonzero;"/>
                            </g>
                        </g>
                    </g>
                </g>
            </g>
        </g>
    </g>
</svg>
