<?xml version="1.0" encoding="UTF-8" standalone="no"?>
<!DOCTYPE svg PUBLIC "-//W3C//DTD SVG 1.1//EN" "http://www.w3.org/Graphics/SVG/1.1/DTD/svg11.dtd">
<svg width="100%" height="100%" viewBox="0 0 61 91" version="1.1" xmlns="http://www.w3.org/2000/svg" xmlns:xlink="http://www.w3.org/1999/xlink" xml:space="preserve" xmlns:serif="http://www.serif.com/" style="fill-rule:evenodd;clip-rule:evenodd;stroke-linejoin:round;stroke-miterlimit:2;">
    <g id="Group_245" transform="matrix(1,0,0,1,-0.001,0)">
        <g id="Path_210" transform="matrix(1,0,0,1,-46.759,-513.145)">
            <g id="Group_240">
                <path id="Path_2101" serif:id="Path_210" d="M106.3,514.117L106.3,602.8L47.637,602.8L47.637,514.117L106.3,514.117" style="fill:rgb(26,24,24);fill-rule:nonzero;"/>
            </g>
        </g>
        <g id="Group_244" transform="matrix(1,0,0,1,3.806,4.124)">
            <g id="Rectangle_178" transform="matrix(1,0,0,1,0.024,0)">
                <rect x="0" y="0" width="52.336" height="14.706" style="fill:white;"/>
            </g>
            <g id="Rectangle_179" transform="matrix(1,0,0,1,0,17.913)">
                <rect x="0" y="0" width="52.366" height="54.062" style="fill:white;"/>
            </g>
            <g id="Group_241" transform="matrix(1,0,0,1,0.01,74.979)">
                <g id="Path_211" transform="matrix(1,0,0,1,-49.567,-565.375)">
                    <path d="M49.567,572.732L49.567,565.554L60.08,565.554L60.08,567.234L53.79,567.234L53.79,568.26L59.113,568.26L59.113,569.934L53.791,569.934L53.791,571.058L60.325,571.058L60.325,572.732L49.567,572.732Z" style="fill:white;fill-rule:nonzero;"/>
                </g>
                <g id="Path_212" transform="matrix(1,0,0,1,-45.341,-565.436)">
                    <path d="M65.032,567.706C64.927,567.449 64.695,567.265 64.421,567.22C64.065,567.124 63.697,567.079 63.329,567.088C62.4,567.088 61.985,567.239 61.985,567.507C61.985,568.568 69.399,567.907 69.399,570.514C69.399,572.175 66.905,572.988 63.365,572.988C59.965,572.988 57.744,571.881 57.654,570.588L61.7,570.588C61.834,570.874 62.092,571.083 62.4,571.154C62.788,571.278 63.193,571.339 63.6,571.335C64.655,571.335 65.358,571.148 65.358,570.808C65.358,569.72 57.939,570.466 57.939,567.73C57.939,566.206 60.303,565.44 63.528,565.44C67.104,565.44 68.736,566.455 69.044,567.71L65.032,567.706Z" style="fill:white;fill-rule:nonzero;"/>
                </g>
                <g id="Path_213" transform="matrix(1,0,0,1,-40.591,-565.374)">
                    <path d="M70.972,568.667L72.633,568.667C73.941,568.667 74.643,568.477 74.643,567.982C74.643,567.487 73.927,567.233 72.943,567.233L70.972,567.233L70.972,568.667ZM70.972,570.231L70.972,572.731L66.749,572.731L66.749,565.553L72.837,565.553C77.127,565.553 78.545,566.209 78.545,567.604C78.545,568.434 77.886,569.123 76.38,569.365C77.74,569.638 78.565,569.808 78.565,571.256C78.565,572.189 78.51,572.514 79.011,572.514L79.011,572.732L74.728,572.732C74.562,572.335 74.491,571.905 74.518,571.476C74.518,570.534 74.23,570.231 72.262,570.231L70.972,570.231Z" style="fill:white;fill-rule:nonzero;"/>
                </g>
                <g id="Path_214" transform="matrix(1,0,0,1,-35.652,-565.374)">
                    <path d="M80.424,567.233L80.424,568.433L82.184,568.433C83.026,568.433 83.636,568.217 83.636,567.806C83.636,567.244 82.803,567.232 81.916,567.232L80.424,567.233ZM80.424,569.733L80.424,571.056L82.266,571.056C83.313,571.056 84.099,570.934 84.099,570.398C84.099,569.771 83.117,569.733 81.767,569.733L80.424,569.733ZM76.202,572.733L76.202,565.555L82.363,565.555C85.263,565.555 87.574,565.945 87.574,567.365C87.574,568.105 86.711,568.644 85.89,568.924C87.285,569.124 88.034,569.798 88.034,570.568C88.034,572.168 85.834,572.733 82.483,572.733L76.202,572.733Z" style="fill:white;fill-rule:nonzero;"/>
                </g>
            </g>
            <g id="Path_215">
            </g>
        </g>
    </g>
</svg>
