<?xml version="1.0" encoding="UTF-8" standalone="no"?>
<!DOCTYPE svg PUBLIC "-//W3C//DTD SVG 1.1//EN" "http://www.w3.org/Graphics/SVG/1.1/DTD/svg11.dtd">
<svg width="100%" height="100%" viewBox="0 0 61 91" version="1.1" xmlns="http://www.w3.org/2000/svg" xmlns:xlink="http://www.w3.org/1999/xlink" xml:space="preserve" xmlns:serif="http://www.serif.com/" style="fill-rule:evenodd;clip-rule:evenodd;stroke-linejoin:round;stroke-miterlimit:2;">
    <g id="Group_252" transform="matrix(1,0,0,1,0.879,0.973)">
        <g id="Group_403">
            <g id="Group_253">
                <g id="Group_2521" serif:id="Group_252">
                    <g id="Path_225" transform="matrix(1,0,0,1,-103.244,-514.093)">
                        <g id="Group_246">
                            <path id="Path_2251" serif:id="Path_225" d="M161.906,514.093L161.906,602.778L103.244,602.778L103.244,514.093L161.906,514.093" style="fill:rgb(26,24,24);fill-rule:nonzero;"/>
                        </g>
                    </g>
                    <g id="Rectangle_180" transform="matrix(1,0,0,1,2.951,3.152)">
                        <rect x="0" y="0" width="52.336" height="14.706" style="fill:white;"/>
                    </g>
                    <g id="Rectangle_181" transform="matrix(1,0,0,1,2.928,21.064)">
                        <rect x="0" y="0" width="52.366" height="54.061" style="fill:white;"/>
                    </g>
                    <g id="Group_247" transform="matrix(1,0,0,1,2.938,78.131)">
                        <g id="Path_226" transform="matrix(1,0,0,1,-105.174,-565.351)">
                            <path d="M105.174,572.707L105.174,565.529L115.687,565.529L115.687,567.209L109.4,567.209L109.4,568.235L114.723,568.235L114.723,569.909L109.4,569.909L109.4,571.033L115.934,571.033L115.934,572.707L105.174,572.707Z" style="fill:white;fill-rule:nonzero;"/>
                        </g>
                        <g id="Path_227" transform="matrix(1,0,0,1,-100.948,-565.412)">
                            <path d="M120.638,567.68C120.532,567.424 120.301,567.24 120.027,567.196C119.672,567.098 119.305,567.053 118.937,567.062C118.007,567.062 117.591,567.214 117.591,567.482C117.591,568.543 125.005,567.876 125.005,570.487C125.005,572.15 122.513,572.961 118.972,572.961C115.572,572.961 113.353,571.856 113.263,570.561L117.307,570.561C117.441,570.847 117.699,571.055 118.007,571.126C118.395,571.25 118.8,571.311 119.207,571.307C120.264,571.307 120.965,571.12 120.965,570.782C120.965,569.693 113.546,570.439 113.546,567.704C113.546,566.178 115.91,565.414 119.135,565.414C122.713,565.414 124.343,566.428 124.652,567.682L120.638,567.68Z" style="fill:white;fill-rule:nonzero;"/>
                        </g>
                        <g id="Path_228" transform="matrix(1,0,0,1,-96.197,-565.351)">
                            <path d="M126.58,568.642L128.241,568.642C129.547,568.642 130.249,568.452 130.249,567.958C130.249,567.464 129.533,567.209 128.549,567.209L126.58,567.209L126.58,568.642ZM126.58,570.207L126.58,572.707L122.355,572.707L122.355,565.529L128.445,565.529C132.735,565.529 134.153,566.187 134.153,567.581C134.153,568.411 133.492,569.1 131.988,569.341C133.346,569.615 134.171,569.784 134.171,571.232C134.171,572.167 134.116,572.491 134.617,572.491L134.617,572.707L130.336,572.707C130.168,572.311 130.096,571.881 130.124,571.452C130.124,570.51 129.838,570.207 127.869,570.207L126.58,570.207Z" style="fill:white;fill-rule:nonzero;"/>
                        </g>
                        <g id="Path_229" transform="matrix(1,0,0,1,-91.258,-565.351)">
                            <path d="M136.029,567.21L136.029,568.41L137.789,568.41C138.631,568.41 139.241,568.192 139.241,567.783C139.241,567.221 138.41,567.209 137.521,567.209L136.029,567.21ZM136.029,569.71L136.029,571.035L137.873,571.035C138.92,571.035 139.704,570.913 139.704,570.377C139.704,569.75 138.724,569.71 137.373,569.71L136.029,569.71ZM131.809,572.71L131.809,565.532L137.969,565.532C140.869,565.532 143.18,565.922 143.18,567.344C143.18,568.084 142.318,568.623 141.498,568.901C142.893,569.101 143.64,569.775 143.64,570.545C143.64,572.145 141.44,572.71 138.091,572.71L131.809,572.71Z" style="fill:white;fill-rule:nonzero;"/>
                        </g>
                    </g>
                    <g id="Group_250" transform="matrix(1,0,0,1,6.898,24.091)">
                        <g id="Path_230" transform="matrix(1,0,0,1,-107.775,-529.917)">
                            <g id="Group_248">
                                <path id="Path_2301" serif:id="Path_230" d="M133.307,567.666L131.052,567.666L131.052,568.907L133.307,568.907L133.307,571.095L134.587,571.095L134.587,568.907L136.848,568.907L136.848,567.666L134.587,567.666L134.587,565.472L133.307,565.472L133.307,567.666ZM129.716,567.11C129.716,562.748 127.379,560.166 123.501,560.166C118.261,560.166 116.97,563.747 116.97,567.11C116.97,571.218 119.031,574.054 123.345,574.054C127.659,574.054 129.716,571.218 129.716,567.11M107.776,539.386L139.489,529.916L142.665,539.96L126.78,544.7L128.08,548.806L142.758,544.429L145.929,554.474L131.26,558.848L132.63,563.176L149.039,558.276L152.221,568.312L119.989,577.938L107.776,539.386M108.985,564.786C110.415,564.431 111.757,563.784 112.925,562.886L112.925,573.386L115.9,573.386L115.9,560.22L113,560.22C111.825,561.18 110.453,561.87 108.982,562.242L108.982,564.791" style="fill:rgb(26,24,24);fill-rule:nonzero;"/>
                            </g>
                        </g>
                        <g id="Path_231" transform="matrix(1,0,0,1,-103.68,-519.056)">
                            <g id="Group_249">
                                <path id="Path_2311" serif:id="Path_231" d="M115.613,556.126C115.636,551.726 117.381,550.7 119.381,550.706C121.617,550.717 122.889,552.388 122.874,556.249C122.86,558.658 122.21,561.611 119.345,561.594C116.538,561.583 115.597,559.341 115.613,556.125" style="fill:rgb(26,24,24);fill-rule:nonzero;"/>
                            </g>
                        </g>
                    </g>
                    <g id="Group_251" transform="matrix(1,0,0,1,4.426,6.199)">
                        <g id="Path_232" transform="matrix(1,0,0,1,-106.151,-518.118)">
                            <path d="M106.151,526.6L106.151,518.257L109.42,518.257L109.42,519.542L107.4,519.542L107.4,521.6L109.257,521.6L109.257,522.883L107.4,522.883L107.4,525.322L109.481,525.322L109.481,526.602L106.151,526.6Z" style="fill:rgb(26,24,24);fill-rule:nonzero;"/>
                        </g>
                        <g id="Path_233" transform="matrix(1,0,0,1,-104.892,-518.118)">
                            <path d="M108.56,518.255L109.86,518.255L110.79,524.322L110.807,524.322L111.851,518.255L113.089,518.255L111.5,526.6L110.032,526.6L108.56,518.255Z" style="fill:rgb(26,24,24);fill-rule:nonzero;"/>
                        </g>
                        <g id="Path_234" transform="matrix(1,0,0,1,-103.145,-518.118)">
                            <path d="M111.9,526.6L111.9,518.257L115.169,518.257L115.169,519.542L113.152,519.542L113.152,521.6L115.009,521.6L115.009,522.883L113.152,522.883L113.152,525.322L115.235,525.322L115.235,526.602L111.9,526.6Z" style="fill:rgb(26,24,24);fill-rule:nonzero;"/>
                        </g>
                        <g id="Path_235" transform="matrix(1,0,0,1,-101.73,-518.118)">
                            <path d="M115.865,526.6L114.612,526.6L114.612,518.257L116.926,518.257C117.341,518.248 117.731,518.46 117.949,518.813C118.234,519.306 118.367,519.873 118.33,520.442C118.343,520.905 118.256,521.366 118.076,521.793C117.923,522.153 117.601,522.416 117.217,522.493L117.217,522.514C117.282,522.532 117.377,522.553 117.497,522.586C117.634,522.623 117.759,522.694 117.861,522.793C117.997,522.929 118.103,523.093 118.17,523.273C118.27,523.556 118.315,523.856 118.302,524.156C118.302,524.287 118.302,524.473 118.308,524.712C118.314,524.951 118.316,525.198 118.329,525.452C118.342,525.706 118.353,525.941 118.373,526.152C118.382,526.304 118.405,526.454 118.443,526.601L117.216,526.601C117.132,526.342 117.089,526.073 117.087,525.801L117.087,524.28C117.088,524.082 117.061,523.885 117.006,523.695C116.959,523.538 116.867,523.399 116.74,523.295C116.581,523.184 116.389,523.131 116.196,523.144L115.873,523.144L115.865,526.6ZM115.865,521.864L116.421,521.864C116.535,521.867 116.645,521.825 116.729,521.748C116.817,521.664 116.885,521.562 116.929,521.448C116.982,521.32 117.017,521.185 117.034,521.048C117.052,520.91 117.061,520.77 117.061,520.631C117.086,520.338 117.026,520.043 116.89,519.782C116.789,519.624 116.611,519.53 116.423,519.535L115.867,519.535L115.865,521.864Z" style="fill:rgb(26,24,24);fill-rule:nonzero;"/>
                        </g>
                        <g id="Path_236" transform="matrix(1,0,0,1,-100.342,-518.118)">
                            <path d="M118.84,523.711L117.27,518.255L118.64,518.255L119.534,521.779L120.49,518.255L121.767,518.255L120.091,523.711L120.091,526.6L118.84,526.6L118.84,523.711Z" style="fill:rgb(26,24,24);fill-rule:nonzero;"/>
                        </g>
                        <g id="Path_237" transform="matrix(1,0,0,1,-98.619,-518.165)">
                            <path d="M122.631,526.784C122.203,526.812 121.779,526.682 121.439,526.42C121.145,526.162 120.931,525.825 120.822,525.45C120.689,525.001 120.614,524.537 120.598,524.069C120.578,523.553 120.566,523.02 120.566,522.469C120.566,521.918 120.578,521.379 120.598,520.863C120.614,520.397 120.689,519.935 120.822,519.488C120.933,519.115 121.147,518.78 121.439,518.523C122.16,518.041 123.105,518.041 123.826,518.523C124.117,518.781 124.33,519.115 124.44,519.488C124.575,519.934 124.651,520.397 124.664,520.863C124.687,521.379 124.696,521.915 124.696,522.469C124.696,523.023 124.687,523.548 124.664,524.069C124.651,524.537 124.575,525.002 124.44,525.45C124.332,525.825 124.119,526.162 123.826,526.42C123.485,526.683 123.06,526.812 122.631,526.784ZM122.631,525.537C122.792,525.544 122.948,525.479 123.056,525.359C123.179,525.197 123.262,525.008 123.297,524.808C123.36,524.494 123.396,524.175 123.404,523.855C123.421,523.467 123.429,523.007 123.43,522.474C123.431,521.941 123.422,521.482 123.404,521.095C123.396,520.774 123.36,520.455 123.297,520.14C123.262,519.941 123.18,519.753 123.056,519.593C122.946,519.477 122.792,519.411 122.632,519.411C122.472,519.411 122.318,519.477 122.208,519.593C122.084,519.753 122.003,519.941 121.97,520.14C121.905,520.454 121.869,520.774 121.86,521.095C121.843,521.485 121.835,521.945 121.836,522.474C121.837,523.003 121.845,523.464 121.86,523.855C121.869,524.175 121.905,524.494 121.97,524.808C122.003,525.008 122.085,525.198 122.208,525.359C122.316,525.478 122.471,525.543 122.631,525.537Z" style="fill:rgb(26,24,24);fill-rule:nonzero;"/>
                        </g>
                        <g id="Path_238" transform="matrix(1,0,0,1,-96.857,-518.118)">
                            <path d="M123.94,526.6L123.94,518.257L125.631,518.257L127.223,524.035L127.24,524.035L127.24,518.257L128.409,518.257L128.409,526.6L126.757,526.6L125.125,520.5L125.107,520.5L125.107,526.6L123.94,526.6Z" style="fill:rgb(26,24,24);fill-rule:nonzero;"/>
                        </g>
                        <g id="Path_239" transform="matrix(1,0,0,1,-94.961,-518.118)">
                            <path d="M127.568,526.6L127.568,518.257L130.835,518.257L130.835,519.542L128.821,519.542L128.821,521.6L130.678,521.6L130.678,522.883L128.821,522.883L128.821,525.322L130.9,525.322L130.9,526.602L127.568,526.6Z" style="fill:rgb(26,24,24);fill-rule:nonzero;"/>
                        </g>
                        <g id="Path_240" transform="matrix(1,0,0,1,-92.946,-518.106)">
                            <path d="M131.426,519.564C131.64,519.393 131.84,519.206 132.026,519.005C132.229,518.785 132.403,518.541 132.544,518.277L133.651,518.277L133.651,526.585L132.4,526.585L132.4,520.194C132.256,520.372 132.098,520.539 131.93,520.694C131.761,520.843 131.592,520.988 131.423,521.122L131.426,519.564Z" style="fill:rgb(26,24,24);fill-rule:nonzero;"/>
                        </g>
                        <g id="Path_241" transform="matrix(1,0,0,1,-91.765,-518.143)">
                            <path d="M135.362,518.208C135.664,518.195 135.964,518.269 136.225,518.423C136.469,518.598 136.649,518.849 136.735,519.136C136.87,519.561 136.951,520.002 136.974,520.448C137.014,520.985 137.038,521.648 137.038,522.448C137.038,523.099 137.023,523.689 136.994,524.216C136.978,524.673 136.909,525.127 136.787,525.568C136.699,525.896 136.523,526.195 136.277,526.43C135.735,526.835 134.986,526.835 134.444,526.43C134.2,526.195 134.025,525.896 133.939,525.568C133.815,525.127 133.744,524.673 133.727,524.216C133.701,523.689 133.686,523.1 133.686,522.448C133.686,521.655 133.707,520.988 133.748,520.448C133.77,520.002 133.851,519.561 133.989,519.136C134.074,518.849 134.253,518.598 134.496,518.423C134.757,518.268 135.059,518.193 135.362,518.208ZM135.362,519.423C135.253,519.416 135.146,519.459 135.073,519.54C134.987,519.675 134.935,519.829 134.922,519.988C134.883,520.294 134.863,520.602 134.863,520.911C134.863,521.311 134.857,521.828 134.857,522.47C134.857,523.097 134.857,523.609 134.869,524.006C134.869,524.317 134.892,524.627 134.937,524.935C134.95,525.098 135.001,525.255 135.088,525.393C135.154,525.476 135.256,525.523 135.362,525.518C135.468,525.522 135.569,525.475 135.635,525.393C135.722,525.255 135.775,525.098 135.789,524.935C135.833,524.627 135.856,524.317 135.858,524.006C135.864,523.606 135.87,523.097 135.87,522.47C135.87,521.827 135.87,521.307 135.861,520.911C135.863,520.602 135.843,520.294 135.802,519.988C135.791,519.828 135.738,519.673 135.648,519.54C135.575,519.46 135.47,519.417 135.362,519.423Z" style="fill:rgb(26,24,24);fill-rule:nonzero;"/>
                        </g>
                        <g id="Path_242" transform="matrix(1,0,0,1,-90.487,-517.562)">
                            <path d="M137.543,519.319L138.463,519.319L138.463,521.6L139.863,521.6L139.863,522.882L138.463,522.882L138.463,525.158L137.543,525.158L137.543,522.882L136.132,522.882L136.132,521.6L137.543,521.6L137.543,519.319Z" style="fill:rgb(26,24,24);fill-rule:nonzero;"/>
                        </g>
                    </g>
                </g>
            </g>
        </g>
    </g>
</svg>
