<?xml version="1.0" encoding="UTF-8" standalone="no"?>
<!DOCTYPE svg PUBLIC "-//W3C//DTD SVG 1.1//EN" "http://www.w3.org/Graphics/SVG/1.1/DTD/svg11.dtd">
<svg width="100%" height="100%" viewBox="0 0 61 91" version="1.1" xmlns="http://www.w3.org/2000/svg" xmlns:xlink="http://www.w3.org/1999/xlink" xml:space="preserve" xmlns:serif="http://www.serif.com/" style="fill-rule:evenodd;clip-rule:evenodd;stroke-linejoin:round;stroke-miterlimit:2;">
    <g id="Group_245" transform="matrix(1,0,0,1,-0.001,0)">
        <g id="Path_210" transform="matrix(1,0,0,1,-46.759,-513.145)">
            <g id="Group_240">
                <path id="Path_2101" serif:id="Path_210" d="M106.3,514.117L106.3,602.8L47.637,602.8L47.637,514.117L106.3,514.117" style="fill:rgb(26,24,24);fill-rule:nonzero;"/>
            </g>
        </g>
        <g id="Group_244" transform="matrix(1,0,0,1,3.806,4.124)">
            <g id="Rectangle_178" transform="matrix(1,0,0,1,0.024,0)">
                <rect x="0" y="0" width="52.336" height="14.706" style="fill:white;"/>
            </g>
            <g id="Rectangle_179" transform="matrix(1,0,0,1,0,17.913)">
                <rect x="0" y="0" width="52.366" height="54.062" style="fill:white;"/>
            </g>
            <g id="Group_241" transform="matrix(1,0,0,1,0.01,74.979)">
                <g id="Path_211" transform="matrix(1,0,0,1,-49.567,-565.375)">
                    <path d="M49.567,572.732L49.567,565.554L60.08,565.554L60.08,567.234L53.79,567.234L53.79,568.26L59.113,568.26L59.113,569.934L53.791,569.934L53.791,571.058L60.325,571.058L60.325,572.732L49.567,572.732Z" style="fill:white;fill-rule:nonzero;"/>
                </g>
                <g id="Path_212" transform="matrix(1,0,0,1,-45.341,-565.436)">
                    <path d="M65.032,567.706C64.927,567.449 64.695,567.265 64.421,567.22C64.065,567.124 63.697,567.079 63.329,567.088C62.4,567.088 61.985,567.239 61.985,567.507C61.985,568.568 69.399,567.907 69.399,570.514C69.399,572.175 66.905,572.988 63.365,572.988C59.965,572.988 57.744,571.881 57.654,570.588L61.7,570.588C61.834,570.874 62.092,571.083 62.4,571.154C62.788,571.278 63.193,571.339 63.6,571.335C64.655,571.335 65.358,571.148 65.358,570.808C65.358,569.72 57.939,570.466 57.939,567.73C57.939,566.206 60.303,565.44 63.528,565.44C67.104,565.44 68.736,566.455 69.044,567.71L65.032,567.706Z" style="fill:white;fill-rule:nonzero;"/>
                </g>
                <g id="Path_213" transform="matrix(1,0,0,1,-40.591,-565.374)">
                    <path d="M70.972,568.667L72.633,568.667C73.941,568.667 74.643,568.477 74.643,567.982C74.643,567.487 73.927,567.233 72.943,567.233L70.972,567.233L70.972,568.667ZM70.972,570.231L70.972,572.731L66.749,572.731L66.749,565.553L72.837,565.553C77.127,565.553 78.545,566.209 78.545,567.604C78.545,568.434 77.886,569.123 76.38,569.365C77.74,569.638 78.565,569.808 78.565,571.256C78.565,572.189 78.51,572.514 79.011,572.514L79.011,572.732L74.728,572.732C74.562,572.335 74.491,571.905 74.518,571.476C74.518,570.534 74.23,570.231 72.262,570.231L70.972,570.231Z" style="fill:white;fill-rule:nonzero;"/>
                </g>
                <g id="Path_214" transform="matrix(1,0,0,1,-35.652,-565.374)">
                    <path d="M80.424,567.233L80.424,568.433L82.184,568.433C83.026,568.433 83.636,568.217 83.636,567.806C83.636,567.244 82.803,567.232 81.916,567.232L80.424,567.233ZM80.424,569.733L80.424,571.056L82.266,571.056C83.313,571.056 84.099,570.934 84.099,570.398C84.099,569.771 83.117,569.733 81.767,569.733L80.424,569.733ZM76.202,572.733L76.202,565.555L82.363,565.555C85.263,565.555 87.574,565.945 87.574,567.365C87.574,568.105 86.711,568.644 85.89,568.924C87.285,569.124 88.034,569.798 88.034,570.568C88.034,572.168 85.834,572.733 82.483,572.733L76.202,572.733Z" style="fill:white;fill-rule:nonzero;"/>
                </g>
            </g>
            <g id="Path_215" transform="matrix(1,0,0,1,-48.217,-509.001)">
                <g id="Group_242">
                    <path id="Path_2151" serif:id="Path_215" d="M52.131,539.41L83.822,529.942L87,539.98L71.124,544.718L72.424,548.826L87.092,544.448L90.262,554.491L75.6,558.86L76.969,563.186L93.364,558.286L96.543,568.32L64.336,577.941L52.131,539.41" style="fill:rgb(26,24,24);fill-rule:nonzero;"/>
                </g>
            </g>
            <g id="Group_243" transform="matrix(1,0,0,1,1.477,3.05)">
                <g id="Path_216" transform="matrix(1,0,0,1,-50.531,-518.144)">
                    <path d="M50.531,526.611L50.531,518.282L55.024,518.282L55.024,519.564L52.254,519.564L52.254,521.616L54.807,521.616L54.807,522.9L52.254,522.9L52.254,525.331L55.113,525.331L55.113,526.613L50.531,526.611Z" style="fill:rgb(26,24,24);fill-rule:nonzero;"/>
                </g>
                <g id="Path_217" transform="matrix(1,0,0,1,-48.802,-518.144)">
                    <path d="M53.84,518.282L55.633,518.282L56.906,524.338L56.93,524.338L58.366,518.282L60.066,518.282L57.887,526.611L55.871,526.611L53.84,518.282Z" style="fill:rgb(26,24,24);fill-rule:nonzero;"/>
                </g>
                <g id="Path_218" transform="matrix(1,0,0,1,-46.399,-518.144)">
                    <path d="M58.44,526.611L58.44,518.282L62.931,518.282L62.931,519.564L60.16,519.564L60.16,521.616L62.715,521.616L62.715,522.9L60.16,522.9L60.16,525.331L63.021,525.331L63.021,526.613L58.44,526.611Z" style="fill:rgb(26,24,24);fill-rule:nonzero;"/>
                </g>
                <g id="Path_219" transform="matrix(1,0,0,1,-44.454,-518.144)">
                    <path d="M63.881,526.611L62.162,526.611L62.162,518.282L65.339,518.282C65.867,518.255 66.381,518.457 66.749,518.836C67.124,519.291 67.309,519.874 67.267,520.462C67.282,520.936 67.162,521.404 66.921,521.812C66.649,522.205 66.217,522.458 65.741,522.505L65.741,522.526L66.128,522.596C66.305,522.631 66.474,522.702 66.623,522.804C66.801,522.927 66.948,523.091 67.051,523.282C67.187,523.556 67.25,523.86 67.234,524.165C67.234,524.293 67.234,524.479 67.24,524.718C67.246,524.957 67.252,525.201 67.267,525.456C67.282,525.711 67.305,525.943 67.331,526.156C67.344,526.31 67.378,526.462 67.431,526.607L65.741,526.607C65.625,526.356 65.565,526.083 65.563,525.807L65.563,524.988C65.563,524.743 65.563,524.508 65.557,524.288C65.558,524.088 65.519,523.891 65.443,523.706C65.368,523.537 65.24,523.396 65.079,523.306C64.847,523.193 64.589,523.141 64.331,523.155L63.885,523.155L63.881,526.611ZM63.881,521.881L64.645,521.881C64.794,521.886 64.942,521.846 65.068,521.765C65.181,521.691 65.274,521.59 65.339,521.471C65.41,521.347 65.46,521.212 65.484,521.071C65.509,520.934 65.522,520.795 65.522,520.655C65.552,520.353 65.469,520.051 65.289,519.807C65.119,519.637 64.885,519.547 64.645,519.56L63.881,519.56L63.881,521.881Z" style="fill:rgb(26,24,24);fill-rule:nonzero;"/>
                </g>
                <g id="Path_220" transform="matrix(1,0,0,1,-42.546,-518.144)">
                    <path d="M67.971,523.726L65.815,518.282L67.7,518.282L68.932,521.8L70.243,518.282L71.997,518.282L69.697,523.726L69.697,526.611L67.971,526.611L67.971,523.726Z" style="fill:rgb(26,24,24);fill-rule:nonzero;"/>
                </g>
                <g id="Path_221" transform="matrix(1,0,0,1,-40.179,-518.191)">
                    <path d="M73.186,526.8C72.615,526.832 72.047,526.706 71.543,526.436C71.169,526.207 70.873,525.87 70.697,525.468C70.518,525.03 70.416,524.563 70.397,524.09C70.367,523.575 70.35,523.044 70.35,522.499C70.35,521.954 70.367,521.41 70.397,520.899C70.416,520.428 70.517,519.964 70.697,519.529C70.873,519.129 71.169,518.792 71.543,518.565C72.583,518.078 73.787,518.078 74.827,518.565C75.202,518.791 75.497,519.128 75.672,519.529C75.853,519.965 75.956,520.428 75.978,520.899C76.008,521.415 76.024,521.948 76.024,522.499C76.024,523.05 76.009,523.575 75.978,524.09C75.955,524.563 75.852,525.029 75.672,525.468C75.497,525.87 75.202,526.208 74.827,526.436C74.324,526.707 73.756,526.833 73.186,526.8ZM73.186,525.553C73.395,525.564 73.601,525.501 73.768,525.375C73.927,525.227 74.042,525.038 74.098,524.828C74.184,524.517 74.233,524.198 74.246,523.876C74.27,523.486 74.283,523.028 74.283,522.498C74.283,521.968 74.271,521.507 74.246,521.119C74.233,520.797 74.184,520.478 74.098,520.167C74.042,519.957 73.927,519.768 73.768,519.62C73.417,519.381 72.954,519.381 72.603,519.62C72.441,519.765 72.326,519.956 72.274,520.167C72.186,520.477 72.136,520.797 72.125,521.119C72.102,521.507 72.091,521.967 72.09,522.498C72.09,523.028 72.102,523.486 72.125,523.876C72.136,524.198 72.187,524.518 72.274,524.828C72.327,525.039 72.441,525.23 72.603,525.375C72.771,525.5 72.977,525.561 73.186,525.549L73.186,525.553Z" style="fill:rgb(26,24,24);fill-rule:nonzero;"/>
                </g>
                <g id="Path_222" transform="matrix(1,0,0,1,-37.757,-518.144)">
                    <path d="M74.98,526.611L74.98,518.282L77.309,518.282L79.494,524.048L79.518,524.048L79.518,518.282L81.129,518.282L81.129,526.611L78.858,526.611L76.612,520.52L76.588,520.52L76.588,526.611L74.98,526.611Z" style="fill:rgb(26,24,24);fill-rule:nonzero;"/>
                </g>
                <g id="Path_223" transform="matrix(1,0,0,1,-35.152,-518.144)">
                    <path d="M79.967,526.611L79.967,518.282L84.467,518.282L84.467,519.564L81.692,519.564L81.692,521.616L84.242,521.616L84.242,522.9L81.692,522.9L81.692,525.331L84.55,525.331L84.55,526.613L79.967,526.611Z" style="fill:rgb(26,24,24);fill-rule:nonzero;"/>
                </g>
            </g>
        </g>
    </g>
</svg>
