<?xml version="1.0" encoding="UTF-8" standalone="no"?>
<!DOCTYPE svg PUBLIC "-//W3C//DTD SVG 1.1//EN" "http://www.w3.org/Graphics/SVG/1.1/DTD/svg11.dtd">
<svg width="100%" height="100%" viewBox="0 0 61 91" version="1.1" xmlns="http://www.w3.org/2000/svg" xmlns:xlink="http://www.w3.org/1999/xlink" xml:space="preserve" xmlns:serif="http://www.serif.com/" style="fill-rule:evenodd;clip-rule:evenodd;stroke-linejoin:round;stroke-miterlimit:2;">
    <g id="Group_263" transform="matrix(1,0,0,1,0.88,0.972)">
        <g id="Group_405">
            <g id="Group_276">
                <g id="Group_2631" serif:id="Group_263">
                    <g id="Path_255" transform="matrix(1,0,0,1,-214.647,-514.116)">
                        <g id="Group_259">
                            <path id="Path_2551" serif:id="Path_255" d="M273.309,514.116L273.309,602.8L214.647,602.8L214.647,514.116L273.309,514.116" style="fill:rgb(26,24,24);fill-rule:nonzero;"/>
                        </g>
                    </g>
                    <g id="Rectangle_184" transform="matrix(1,0,0,1,2.952,3.152)">
                        <rect x="0" y="0" width="52.336" height="14.707" style="fill:white;"/>
                    </g>
                    <g id="Rectangle_185" transform="matrix(1,0,0,1,2.928,21.065)">
                        <rect x="0" y="0" width="52.366" height="54.062" style="fill:white;"/>
                    </g>
                    <g id="Group_260" transform="matrix(1,0,0,1,2.938,78.133)">
                        <g id="Path_256" transform="matrix(1,0,0,1,-216.577,-565.375)">
                            <path d="M216.577,572.732L216.577,565.554L227.09,565.554L227.09,567.234L220.8,567.234L220.8,568.26L226.123,568.26L226.123,569.934L220.8,569.934L220.8,571.058L227.334,571.058L227.334,572.732L216.577,572.732Z" style="fill:white;fill-rule:nonzero;"/>
                        </g>
                        <g id="Path_257" transform="matrix(1,0,0,1,-212.351,-565.436)">
                            <path d="M232.041,567.706C231.937,567.448 231.704,567.264 231.43,567.22C231.075,567.124 230.708,567.079 230.34,567.088C229.411,567.088 228.996,567.239 228.996,567.507C228.996,568.568 236.409,567.907 236.409,570.514C236.409,572.175 233.917,572.988 230.375,572.988C226.975,572.988 224.756,571.881 224.666,570.588L228.71,570.588C228.844,570.874 229.103,571.082 229.41,571.154C229.798,571.278 230.203,571.339 230.61,571.335C231.667,571.335 232.368,571.148 232.368,570.808C232.368,569.72 224.948,570.466 224.948,567.73C224.948,566.206 227.314,565.44 230.537,565.44C234.115,565.44 235.745,566.455 236.054,567.71L232.041,567.706Z" style="fill:white;fill-rule:nonzero;"/>
                        </g>
                        <g id="Path_258" transform="matrix(1,0,0,1,-207.6,-565.374)">
                            <path d="M237.982,568.667L239.643,568.667C240.949,568.667 241.651,568.477 241.651,567.982C241.651,567.487 240.937,567.233 239.951,567.233L237.982,567.233L237.982,568.667ZM237.982,570.231L237.982,572.731L233.759,572.731L233.759,565.553L239.847,565.553C244.137,565.553 245.555,566.209 245.555,567.604C245.555,568.434 244.894,569.123 243.39,569.365C244.748,569.638 245.573,569.808 245.573,571.256C245.573,572.189 245.518,572.514 246.019,572.514L246.019,572.732L241.738,572.732C241.572,572.335 241.499,571.905 241.526,571.476C241.526,570.534 241.24,570.231 239.271,570.231L237.982,570.231Z" style="fill:white;fill-rule:nonzero;"/>
                        </g>
                        <g id="Path_259" transform="matrix(1,0,0,1,-202.661,-565.374)">
                            <path d="M247.432,567.233L247.432,568.433L249.193,568.433C250.033,568.433 250.645,568.217 250.645,567.806C250.645,567.244 249.812,567.232 248.925,567.232L247.432,567.233ZM247.432,569.733L247.432,571.056L249.276,571.056C250.323,571.056 251.107,570.934 251.107,570.398C251.107,569.771 250.127,569.733 248.776,569.733L247.432,569.733ZM243.212,572.733L243.212,565.555L249.373,565.555C252.273,565.555 254.584,565.945 254.584,567.365C254.584,568.105 253.721,568.644 252.9,568.924C254.295,569.124 255.042,569.798 255.042,570.568C255.042,572.168 252.842,572.733 249.493,572.733L243.212,572.733Z" style="fill:white;fill-rule:nonzero;"/>
                        </g>
                    </g>
                    <g id="Path_260" transform="matrix(1,0,0,1,-212.991,-505.856)">
                        <g id="Group_261">
                            <path id="Path_2601" serif:id="Path_260" d="M217.817,540.308L233.876,535.981L243.035,557.548L243.112,557.521L240.348,534.247L256.407,529.925L266.426,567.587L256.64,570.21L249.474,543.287L249.397,543.317L252.431,571.34L241.839,574.2L230.548,548.4L230.468,548.421L237.62,575.344L227.839,577.973L217.817,540.308Z" style="fill:rgb(26,24,24);fill-rule:nonzero;"/>
                        </g>
                    </g>
                    <g id="Group_262" transform="matrix(1,0,0,1,4.404,6.28)">
                        <g id="Path_261" transform="matrix(1,0,0,1,-217.54,-518.225)">
                            <path d="M217.54,526.6L217.54,518.272L219.9,518.272L221,523.934L221.02,523.934L222.186,518.272L224.474,518.272L224.474,526.6L223.043,526.6L223.043,520.175L223.023,520.175L221.671,526.6L220.271,526.6L218.985,520.175L218.967,520.175L218.967,526.6L217.54,526.6Z" style="fill:rgb(26,24,24);fill-rule:nonzero;"/>
                        </g>
                        <g id="Path_262" transform="matrix(1,0,0,1,-214.931,-518.225)">
                            <path d="M222.533,526.6L224.477,518.272L226.415,518.272L228.321,526.6L226.774,526.6L226.386,524.753L224.38,524.753L223.98,526.6L222.533,526.6ZM225.365,519.875L225.342,519.875L224.672,523.475L226.072,523.475L225.365,519.875Z" style="fill:rgb(26,24,24);fill-rule:nonzero;"/>
                        </g>
                        <g id="Path_263" transform="matrix(1,0,0,1,-213.099,-518.225)">
                            <path d="M230.779,518.271L230.779,519.656L229.145,519.656L229.145,526.6L227.674,526.6L227.674,519.657L226.04,519.657L226.04,518.272L230.779,518.271Z" style="fill:rgb(26,24,24);fill-rule:nonzero;"/>
                        </g>
                        <g id="Path_264" transform="matrix(1,0,0,1,-211.249,-518.225)">
                            <path d="M234.361,518.271L234.361,524.171C234.361,524.486 234.32,524.799 234.239,525.103C234.159,525.399 234.023,525.676 233.839,525.921C233.643,526.171 233.391,526.373 233.104,526.51C232.749,526.668 232.363,526.744 231.974,526.732C231.301,526.785 230.639,526.531 230.174,526.041C229.758,525.51 229.548,524.845 229.585,524.171L229.585,518.271L231.054,518.271L231.054,524.061C231.022,524.444 231.109,524.828 231.302,525.161C231.454,525.372 231.7,525.495 231.96,525.49C232.246,525.51 232.52,525.367 232.668,525.122C232.838,524.795 232.917,524.427 232.895,524.059L232.895,518.269L234.361,518.271Z" style="fill:rgb(26,24,24);fill-rule:nonzero;"/>
                        </g>
                        <g id="Path_265" transform="matrix(1,0,0,1,-209.209,-518.225)">
                            <path d="M234.957,526.6L233.486,526.6L233.486,518.272L236.2,518.272C236.665,518.256 237.111,518.463 237.4,518.828C237.727,519.303 237.884,519.875 237.845,520.451C237.859,520.919 237.756,521.383 237.545,521.801C237.339,522.176 236.968,522.432 236.545,522.494L236.545,522.518C236.623,522.532 236.732,522.556 236.877,522.585C237.032,522.622 237.176,522.694 237.299,522.794C237.456,522.924 237.58,523.088 237.663,523.274C237.781,523.552 237.835,523.853 237.82,524.154C237.82,524.287 237.82,524.471 237.826,524.708C237.832,524.945 237.837,525.194 237.85,525.446C237.863,525.698 237.879,525.935 237.903,526.146C237.913,526.299 237.94,526.451 237.984,526.598L236.545,526.598C236.447,526.343 236.395,526.072 236.393,525.798L236.393,524.28C236.394,524.081 236.36,523.883 236.293,523.695C236.233,523.532 236.124,523.392 235.981,523.295C235.788,523.184 235.567,523.131 235.345,523.144L234.963,523.144L234.957,526.6ZM234.957,521.871L235.61,521.871C235.74,521.875 235.867,521.835 235.971,521.757C236.069,521.675 236.147,521.573 236.201,521.457C236.265,521.332 236.307,521.196 236.327,521.057C236.348,520.919 236.359,520.78 236.36,520.641C236.387,520.344 236.317,520.046 236.16,519.793C236.026,519.629 235.822,519.537 235.61,519.546L234.957,519.546L234.957,521.871Z" style="fill:rgb(26,24,24);fill-rule:nonzero;"/>
                        </g>
                        <g id="Path_266" transform="matrix(1,0,0,1,-207.342,-518.225)">
                            <path d="M237.06,526.6L237.06,518.272L240.894,518.272L240.894,519.552L238.531,519.552L238.531,521.607L240.71,521.607L240.71,522.886L238.531,522.886L238.531,525.317L240.971,525.317L240.971,526.6L237.06,526.6Z" style="fill:rgb(26,24,24);fill-rule:nonzero;"/>
                        </g>
                        <g id="Path_267" transform="matrix(1,0,0,1,-204.976,-518.241)">
                            <path d="M241.587,519.538C241.836,519.366 242.074,519.177 242.298,518.973C242.53,518.757 242.732,518.511 242.898,518.241L244.198,518.241L244.198,526.614L242.727,526.614L242.727,520.172C242.556,520.354 242.372,520.523 242.176,520.677C241.981,520.826 241.783,520.971 241.582,521.108L241.587,519.538Z" style="fill:rgb(26,24,24);fill-rule:nonzero;"/>
                        </g>
                        <g id="Path_268" transform="matrix(1,0,0,1,-203.555,-518.241)">
                            <path d="M247.959,519.838L246.303,526.614L244.776,526.614L246.636,519.538L244.308,519.538L244.308,518.238L247.959,518.238L247.959,519.838Z" style="fill:rgb(26,24,24);fill-rule:nonzero;"/>
                        </g>
                        <g id="Path_269" transform="matrix(1,0,0,1,-202.092,-517.671)">
                            <path d="M248.762,519.332L249.844,519.332L249.844,521.605L251.487,521.605L251.487,522.884L249.844,522.884L249.844,525.155L248.762,525.155L248.762,522.884L247.107,522.884L247.107,521.605L248.762,521.605L248.762,519.332Z" style="fill:rgb(26,24,24);fill-rule:nonzero;"/>
                        </g>
                    </g>
                </g>
            </g>
        </g>
    </g>
</svg>
