<?xml version="1.0" encoding="UTF-8" standalone="no"?>
<!DOCTYPE svg PUBLIC "-//W3C//DTD SVG 1.1//EN" "http://www.w3.org/Graphics/SVG/1.1/DTD/svg11.dtd">
<svg width="100%" height="100%" viewBox="0 0 144 216" version="1.1" xmlns="http://www.w3.org/2000/svg" xmlns:xlink="http://www.w3.org/1999/xlink" xml:space="preserve" xmlns:serif="http://www.serif.com/" style="fill-rule:evenodd;clip-rule:evenodd;stroke-linejoin:round;stroke-miterlimit:2;">
    <g id="Group_477" transform="matrix(1,0,0,1,2.085,2.312)">
        <g id="Group_478">
            <g id="Group_4771" serif:id="Group_477">
                <g id="Path_1184" transform="matrix(1,0,0,1,-47.637,-626.885)">
                    <g id="Group_473">
                        <path id="Path_11841" serif:id="Path_1184" d="M187.068,626.885L187.068,837.674L47.637,837.674L47.637,626.885L187.068,626.885" style="fill:rgb(26,24,24);fill-rule:nonzero;"/>
                    </g>
                </g>
                <g id="Rectangle_323" transform="matrix(1,0,0,1,7.017,7.491)">
                    <rect x="0" y="0" width="124.392" height="34.953" style="fill:white;"/>
                </g>
                <g id="Rectangle_324" transform="matrix(1,0,0,1,6.961,50.065)">
                    <rect x="0" y="0" width="124.463" height="128.495" style="fill:white;"/>
                </g>
                <g id="Group_474" transform="matrix(1,0,0,1,6.985,185.701)">
                    <g id="Path_1185" transform="matrix(1,0,0,1,-49.567,-677.897)">
                        <path d="M49.567,695.382L49.567,678.321L74.555,678.321L74.555,682.314L59.607,682.314L59.607,684.752L72.258,684.752L72.258,688.731L59.607,688.731L59.607,691.4L75.134,691.4L75.134,695.379L49.567,695.382Z" style="fill:white;fill-rule:nonzero;"/>
                    </g>
                    <g id="Path_1186" transform="matrix(1,0,0,1,-28.387,-678.204)">
                        <path d="M75.184,683.6C74.937,682.99 74.387,682.552 73.737,682.449C72.892,682.217 72.018,682.11 71.142,682.131C68.935,682.131 67.942,682.493 67.942,683.131C67.942,685.653 85.561,684.068 85.561,690.274C85.561,694.225 79.637,696.154 71.221,696.154C63.137,696.154 57.865,693.523 57.651,690.444L67.266,690.444C67.583,691.125 68.198,691.622 68.931,691.787C69.855,692.082 70.82,692.228 71.79,692.218C74.298,692.218 75.966,691.773 75.966,690.966C75.966,688.383 58.333,690.155 58.333,683.653C58.333,680.027 63.949,678.211 71.617,678.211C80.117,678.211 83.993,680.621 84.731,683.603L75.184,683.6Z" style="fill:white;fill-rule:nonzero;"/>
                    </g>
                    <g id="Path_1187" transform="matrix(1,0,0,1,-4.576,-677.898)">
                        <path d="M76.787,685.721L80.735,685.721C83.843,685.721 85.512,685.269 85.512,684.096C85.512,682.896 83.812,682.316 81.466,682.316L76.787,682.316L76.787,685.721ZM76.787,689.441L76.787,695.383L66.749,695.383L66.749,678.321L81.22,678.321C91.42,678.321 94.786,679.884 94.786,683.199C94.786,685.171 93.219,686.81 89.64,687.382C92.871,688.033 94.833,688.435 94.833,691.876C94.833,694.098 94.703,694.868 95.893,694.868L95.893,695.382L85.714,695.382C85.32,694.44 85.149,693.419 85.214,692.4C85.214,690.16 84.53,689.44 79.851,689.44L76.787,689.441Z" style="fill:white;fill-rule:nonzero;"/>
                    </g>
                    <g id="Path_1188" transform="matrix(1,0,0,1,20.177,-677.898)">
                        <path d="M86.236,682.316L86.236,685.171L90.419,685.171C92.419,685.171 93.871,684.654 93.871,683.68C93.871,682.345 91.892,682.316 89.782,682.316L86.236,682.316ZM86.236,688.258L86.236,691.4L90.614,691.4C93.104,691.4 94.971,691.111 94.971,689.84C94.971,688.349 92.637,688.255 89.427,688.255L86.236,688.258ZM76.2,695.383L76.2,678.321L90.846,678.321C97.746,678.321 103.232,679.248 103.232,682.627C103.232,684.386 101.18,685.667 99.232,686.327C102.547,686.808 104.327,688.404 104.327,690.235C104.327,694.035 99.105,695.381 91.134,695.381L76.2,695.383Z" style="fill:white;fill-rule:nonzero;"/>
                    </g>
                </g>
                <g id="Group_475" transform="matrix(1,0,0,1,10.494,60.641)">
                    <g id="Path_1189" transform="matrix(1,0,0,1,-50.537,-633.33)">
                        <path d="M113.851,701.681C111.774,693.992 107.651,689.494 101.776,687.923C105.431,683.65 107.508,677.038 104.711,666.653C100.781,652.153 90.805,645.122 78.679,648.353L51.1,655.689L50.535,655.834L73.375,740.334L91.822,735.416C91.822,735.416 84.339,707.745 83.029,702.871L83.929,702.632C86.748,701.901 88.807,701.908 90.186,702.708C92.629,704.108 93.758,708.335 95.049,713.224L96.08,717.117C97.28,721.817 98.555,726.685 101.732,730.828L102.97,732.46L124.07,726.869L121.237,723.243C119.811,721.42 116.265,710.619 113.851,701.681ZM83.661,686.581C83.661,686.581 81.294,687.214 78.961,687.829C77.582,682.738 74.423,671.029 73.045,665.929C75.361,665.329 77.745,664.691 77.745,664.691C79.978,664.105 83.712,663.106 86.445,673.223C86.969,675.186 89.346,685.064 83.661,686.577L83.661,686.581Z" style="fill:rgb(26,24,24);fill-rule:nonzero;"/>
                    </g>
                    <g id="Path_1190" transform="matrix(1,0,0,1,-8.134,-643.643)">
                        <path d="M94.56,644.627L69.715,651.227L66.73,652.016L89.56,736.528L108.416,731.528C108.416,731.528 101.07,704.367 99.75,699.522C102.934,698.664 107.859,697.373 107.859,697.373C122.569,693.447 128.192,682.045 123.643,665.273C117.737,643.4 104.58,641.978 94.56,644.627ZM102.246,682.127C102.246,682.127 98.617,683.097 95.534,683.915C94.192,678.921 90.964,667.027 89.628,662.03C92.364,661.303 95.349,660.514 95.349,660.514C98.598,659.642 102.311,659.642 105.257,670.53C106.665,675.71 105.2,681.348 102.246,682.13L102.246,682.127Z" style="fill:rgb(26,24,24);fill-rule:nonzero;"/>
                    </g>
                </g>
                <g id="Group_476" transform="matrix(1,0,0,1,10.465,14.724)">
                    <g id="Path_1191" transform="matrix(1,0,0,1,-50.529,-630.713)">
                        <path d="M53.011,650.89L50.529,650.89L50.529,631.046L55.114,631.046C55.987,631.057 56.779,631.571 57.144,632.363C57.71,633.573 57.966,634.905 57.889,636.239C57.921,637.333 57.751,638.423 57.389,639.456C57.138,640.257 56.497,640.879 55.689,641.106L55.689,641.16C55.823,641.196 56.007,641.251 56.246,641.327C56.525,641.423 56.772,641.593 56.962,641.819C57.24,642.156 57.449,642.544 57.577,642.962C57.775,643.644 57.863,644.353 57.838,645.062C57.838,645.373 57.845,645.815 57.849,646.379C57.853,646.943 57.867,647.533 57.889,648.141C57.911,648.749 57.943,649.302 57.979,649.813C57.995,650.175 58.042,650.534 58.12,650.888L55.689,650.888C55.522,650.268 55.435,649.63 55.432,648.988L55.432,647.038C55.432,646.452 55.432,645.891 55.425,645.359C55.425,644.892 55.368,644.426 55.255,643.973C55.172,643.613 54.99,643.283 54.73,643.021C54.433,642.767 54.049,642.64 53.659,642.666L53.015,642.666L53.011,650.89ZM53.011,639.618L54.111,639.618C54.345,639.623 54.569,639.523 54.723,639.347C54.898,639.141 55.031,638.904 55.114,638.647C55.216,638.339 55.287,638.021 55.324,637.699C55.357,637.352 55.378,637.019 55.378,636.708C55.428,636.018 55.312,635.325 55.038,634.689C54.87,634.331 54.508,634.101 54.112,634.103L53.012,634.103L53.011,639.618Z" style="fill:rgb(26,24,24);fill-rule:nonzero;"/>
                    </g>
                    <g id="Path_1192" transform="matrix(1,0,0,1,-44.535,-630.713)">
                        <path d="M52.818,650.89L56.1,631.046L59.368,631.046L62.589,650.89L59.979,650.89L59.32,646.49L55.937,646.49L55.264,650.89L52.818,650.89ZM57.598,634.867L57.562,634.867L56.426,643.443L58.8,643.443L57.598,634.867Z" style="fill:rgb(26,24,24);fill-rule:nonzero;"/>
                    </g>
                    <g id="Path_1193" transform="matrix(1,0,0,1,-38.012,-630.713)">
                        <path d="M63.31,631.046L63.31,634.346L60.552,634.346L60.552,650.89L58.07,650.89L58.07,634.342L55.309,634.342L55.309,631.042L63.31,631.046Z" style="fill:rgb(26,24,24);fill-rule:nonzero;"/>
                    </g>
                    <g id="Path_1194" transform="matrix(1,0,0,1,-31.39,-630.713)">
                        <rect x="57.838" y="631.046" width="2.479" height="19.844" style="fill:rgb(26,24,24);fill-rule:nonzero;"/>
                    </g>
                    <g id="Path_1195" transform="matrix(1,0,0,1,-28.075,-630.713)">
                        <path d="M59.1,650.89L59.1,631.046L62.447,631.046L65.602,644.789L65.635,644.789L65.635,631.046L67.951,631.046L67.951,650.89L64.684,650.89L61.456,636.38L61.42,636.38L61.42,650.89L59.1,650.89Z" style="fill:rgb(26,24,24);fill-rule:nonzero;"/>
                    </g>
                    <g id="Path_1196" transform="matrix(1,0,0,1,-20.24,-630.954)">
                        <path d="M67.629,637.384C67.629,636.928 67.615,636.484 67.586,636.07C67.567,635.696 67.499,635.327 67.386,634.97C67.297,634.686 67.143,634.425 66.937,634.21C66.722,634.015 66.438,633.913 66.148,633.924C65.759,633.926 65.408,634.164 65.261,634.524C65.02,635.037 64.864,635.586 64.798,636.149C64.69,636.927 64.633,637.711 64.628,638.497C64.606,639.387 64.599,640.306 64.599,641.262C64.599,642.814 64.628,644.074 64.686,645.025C64.714,645.77 64.806,646.511 64.961,647.24C65.028,647.639 65.218,648.007 65.504,648.293C65.753,648.482 66.06,648.58 66.372,648.568C66.587,648.57 66.801,648.536 67.005,648.468C67.212,648.391 67.412,648.299 67.605,648.193L67.605,643.793L66.268,643.793L66.268,640.742L70.093,640.742L70.093,650.8C69.93,650.854 69.706,650.919 69.427,650.992C69.148,651.065 68.848,651.137 68.533,651.213C68.218,651.289 67.896,651.343 67.578,651.394C67.3,651.433 67.019,651.454 66.738,651.459C65.874,651.5 65.015,651.306 64.252,650.898C63.593,650.469 63.099,649.828 62.852,649.081C62.49,648.04 62.283,646.951 62.237,645.85C62.137,644.533 62.096,642.933 62.096,641.044C62.096,639.796 62.126,638.568 62.186,637.36C62.225,636.268 62.39,635.183 62.678,634.129C62.895,633.272 63.324,632.483 63.926,631.835C64.558,631.22 65.42,630.899 66.3,630.952C66.873,630.944 67.437,631.092 67.932,631.379C68.439,631.684 68.862,632.109 69.166,632.617C69.528,633.238 69.778,633.918 69.904,634.625C70.072,635.534 70.136,636.459 70.092,637.382L67.629,637.384Z" style="fill:rgb(26,24,24);fill-rule:nonzero;"/>
                    </g>
                    <g id="Path_1197" transform="matrix(1,0,0,1,-10.248,-630.713)">
                        <path d="M65.912,631.046L70.385,631.046C70.9,631.032 71.408,631.175 71.84,631.455C72.26,631.766 72.594,632.179 72.81,632.655C73.089,633.251 73.276,633.887 73.364,634.54C73.487,635.348 73.546,636.165 73.541,636.983C73.537,637.608 73.498,638.233 73.425,638.854C73.364,639.505 73.214,640.144 72.98,640.754C72.765,641.315 72.423,641.818 71.98,642.223C71.494,642.632 70.871,642.843 70.236,642.813L68.394,642.813L68.394,650.893L65.912,650.893L65.912,631.046ZM68.394,639.759L69.773,639.759C69.968,639.756 70.153,639.673 70.283,639.528C70.449,639.35 70.583,639.144 70.677,638.92C70.794,638.647 70.88,638.362 70.934,638.07C70.992,637.748 71.021,637.421 71.021,637.093C71.021,636.688 70.999,636.304 70.967,635.935C70.935,635.608 70.864,635.286 70.754,634.976C70.665,634.729 70.517,634.508 70.323,634.332C70.131,634.172 69.885,634.089 69.635,634.101L68.394,634.101L68.394,639.759Z" style="fill:rgb(26,24,24);fill-rule:nonzero;"/>
                    </g>
                    <g id="Path_1198" transform="matrix(1,0,0,1,-3.651,-630.713)">
                        <path d="M68.431,650.89L68.431,631.046L74.9,631.046L74.9,634.1L70.91,634.1L70.91,638.989L74.59,638.989L74.59,642.04L70.91,642.04L70.91,647.84L75.039,647.84L75.039,650.894L68.431,650.89Z" style="fill:rgb(26,24,24);fill-rule:nonzero;"/>
                    </g>
                    <g id="Path_1199" transform="matrix(1,0,0,1,2.303,-630.713)">
                        <path d="M70.705,650.89L70.705,631.046L74.056,631.046L77.211,644.789L77.247,644.789L77.247,631.046L79.556,631.046L79.556,650.89L76.292,650.89L73.057,636.38L73.021,636.38L73.021,650.89L70.705,650.89Z" style="fill:rgb(26,24,24);fill-rule:nonzero;"/>
                    </g>
                    <g id="Path_1200" transform="matrix(1,0,0,1,10.256,-630.713)">
                        <path d="M73.742,631.046L77.878,631.046C78.595,631.013 79.3,631.248 79.854,631.704C80.409,632.23 80.814,632.894 81.026,633.629C81.337,634.633 81.526,635.67 81.591,636.719C81.691,637.938 81.739,639.319 81.739,640.859L81.739,642.659C81.739,643.347 81.71,644.067 81.659,644.816C81.605,645.56 81.502,646.3 81.351,647.031C81.223,647.706 81.001,648.359 80.689,648.971C80.413,649.513 80.02,649.987 79.538,650.357C79.027,650.726 78.408,650.914 77.779,650.893L73.742,650.893L73.742,631.046ZM76.221,647.836L77.421,647.836C77.763,647.848 78.094,647.715 78.333,647.471C78.615,647.127 78.803,646.715 78.879,646.277C79.031,645.575 79.122,644.86 79.15,644.142C79.201,643.275 79.226,642.218 79.226,640.969C79.226,640.05 79.215,639.181 79.201,638.356C79.194,637.623 79.13,636.893 79.009,636.17C78.936,635.639 78.762,635.126 78.495,634.661C78.292,634.303 77.906,634.086 77.495,634.1L76.221,634.1L76.221,647.836Z" style="fill:rgb(26,24,24);fill-rule:nonzero;"/>
                    </g>
                    <g id="Path_1201" transform="matrix(1,0,0,1,17.486,-630.713)">
                        <rect x="76.5" y="631.046" width="2.479" height="19.844" style="fill:rgb(26,24,24);fill-rule:nonzero;"/>
                    </g>
                    <g id="Path_1202" transform="matrix(1,0,0,1,20.801,-630.713)">
                        <path d="M77.769,650.89L77.769,631.046L81.116,631.046L84.268,644.789L84.3,644.789L84.3,631.046L86.62,631.046L86.62,650.89L83.349,650.89L80.114,636.38L80.078,636.38L80.078,650.89L77.769,650.89Z" style="fill:rgb(26,24,24);fill-rule:nonzero;"/>
                    </g>
                    <g id="Path_1203" transform="matrix(1,0,0,1,28.636,-630.954)">
                        <path d="M86.294,637.384C86.294,636.928 86.28,636.484 86.251,636.07C86.23,635.696 86.163,635.327 86.051,634.97C85.961,634.684 85.805,634.424 85.595,634.21C85.381,634.013 85.097,633.91 84.806,633.924C84.417,633.927 84.067,634.164 83.919,634.524C83.678,635.037 83.523,635.586 83.463,636.149C83.354,636.927 83.295,637.711 83.286,638.497C83.275,639.387 83.264,640.306 83.264,641.262C83.264,642.814 83.289,644.074 83.347,645.025C83.375,645.77 83.468,646.511 83.626,647.24C83.692,647.638 83.881,648.006 84.165,648.293C84.415,648.483 84.723,648.58 85.037,648.568C85.252,648.57 85.466,648.536 85.67,648.468C85.876,648.391 86.077,648.299 86.27,648.193L86.27,643.793L84.92,643.793L84.92,640.742L88.748,640.742L88.748,650.8C88.582,650.854 88.361,650.919 88.086,650.992C87.811,651.065 87.503,651.137 87.186,651.213C86.869,651.289 86.553,651.343 86.234,651.394C85.957,651.433 85.678,651.455 85.398,651.459C84.533,651.5 83.672,651.306 82.908,650.898C82.25,650.468 81.756,649.827 81.508,649.081C81.148,648.039 80.941,646.951 80.893,645.85C80.803,644.533 80.759,642.933 80.759,641.044C80.759,639.796 80.784,638.569 80.846,637.36C80.887,636.268 81.052,635.184 81.338,634.129C81.555,633.272 81.983,632.484 82.583,631.835C83.688,630.857 85.296,630.674 86.592,631.379C87.099,631.684 87.523,632.109 87.826,632.617C88.188,633.238 88.438,633.918 88.564,634.625C88.731,635.534 88.794,636.459 88.752,637.382L86.294,637.384Z" style="fill:rgb(26,24,24);fill-rule:nonzero;"/>
                    </g>
                </g>
            </g>
        </g>
    </g>
</svg>
