<?xml version="1.0" encoding="UTF-8" standalone="no"?>
<!DOCTYPE svg PUBLIC "-//W3C//DTD SVG 1.1//EN" "http://www.w3.org/Graphics/SVG/1.1/DTD/svg11.dtd">
<svg width="100%" height="100%" viewBox="0 0 61 91" version="1.1" xmlns="http://www.w3.org/2000/svg" xmlns:xlink="http://www.w3.org/1999/xlink" xml:space="preserve" xmlns:serif="http://www.serif.com/" style="fill-rule:evenodd;clip-rule:evenodd;stroke-linejoin:round;stroke-miterlimit:2;">
    <g id="Group_257" transform="matrix(1,0,0,1,0.878,0.972)">
        <g id="Group_404">
            <g id="Group_275">
                <g id="Group_2571" serif:id="Group_257">
                    <g id="Path_244" transform="matrix(1,0,0,1,-158.138,-514.118)">
                        <g id="Group_254">
                            <path id="Path_2441" serif:id="Path_244" d="M216.8,514.118L216.8,602.8L158.138,602.8L158.138,514.118L216.8,514.118" style="fill:rgb(26,24,24);fill-rule:nonzero;"/>
                        </g>
                    </g>
                    <g id="Rectangle_182" transform="matrix(1,0,0,1,2.952,3.152)">
                        <rect x="0" y="0" width="52.336" height="14.704" style="fill:white;"/>
                    </g>
                    <g id="Rectangle_183" transform="matrix(1,0,0,1,2.928,21.065)">
                        <rect x="0" y="0" width="52.366" height="54.062" style="fill:white;"/>
                    </g>
                    <g id="Group_255" transform="matrix(1,0,0,1,2.939,78.13)">
                        <g id="Path_245" transform="matrix(1,0,0,1,-160.068,-565.375)">
                            <path d="M160.068,572.732L160.068,565.554L170.581,565.554L170.581,567.234L164.291,567.234L164.291,568.26L169.614,568.26L169.614,569.934L164.291,569.934L164.291,571.058L170.825,571.058L170.825,572.732L160.068,572.732Z" style="fill:white;fill-rule:nonzero;"/>
                        </g>
                        <g id="Path_246" transform="matrix(1,0,0,1,-155.842,-565.436)">
                            <path d="M175.532,567.706C175.428,567.449 175.197,567.264 174.923,567.22C174.567,567.124 174.199,567.079 173.831,567.088C172.902,567.088 172.487,567.239 172.487,567.507C172.487,568.568 179.901,567.907 179.901,570.514C179.901,572.175 177.407,572.988 173.867,572.988C170.467,572.988 168.246,571.881 168.156,570.588L172.2,570.588C172.334,570.874 172.593,571.082 172.9,571.154C173.288,571.278 173.693,571.339 174.1,571.335C175.155,571.335 175.858,571.148 175.858,570.808C175.858,569.72 168.439,570.466 168.439,567.73C168.439,566.206 170.803,565.44 174.028,565.44C177.604,565.44 179.236,566.455 179.544,567.71L175.532,567.706Z" style="fill:white;fill-rule:nonzero;"/>
                        </g>
                        <g id="Path_247" transform="matrix(1,0,0,1,-151.092,-565.374)">
                            <path d="M181.473,568.667L183.134,568.667C184.442,568.667 185.144,568.477 185.144,567.982C185.144,567.487 184.428,567.233 183.444,567.233L181.475,567.233L181.473,568.667ZM181.473,570.231L181.473,572.731L177.25,572.731L177.25,565.553L183.338,565.553C187.628,565.553 189.046,566.209 189.046,567.604C189.046,568.434 188.385,569.123 186.881,569.365C188.241,569.638 189.066,569.808 189.066,571.256C189.066,572.189 189.011,572.514 189.512,572.514L189.512,572.732L185.229,572.732C185.063,572.335 184.99,571.905 185.017,571.476C185.017,570.534 184.731,570.231 182.762,570.231L181.473,570.231Z" style="fill:white;fill-rule:nonzero;"/>
                        </g>
                        <g id="Path_248" transform="matrix(1,0,0,1,-146.153,-565.374)">
                            <path d="M190.925,567.233L190.925,568.433L192.685,568.433C193.527,568.433 194.137,568.217 194.137,567.806C194.137,567.244 193.304,567.232 192.417,567.232L190.925,567.233ZM190.925,569.733L190.925,571.056L192.767,571.056C193.814,571.056 194.6,570.934 194.6,570.398C194.6,569.771 193.618,569.733 192.268,569.733L190.925,569.733ZM186.703,572.733L186.703,565.555L192.864,565.555C195.764,565.555 198.075,565.945 198.075,567.365C198.075,568.105 197.212,568.644 196.391,568.924C197.786,569.124 198.535,569.798 198.535,570.568C198.535,572.168 196.335,572.733 192.984,572.733L186.703,572.733Z" style="fill:white;fill-rule:nonzero;"/>
                        </g>
                    </g>
                    <g id="Path_249" transform="matrix(1,0,0,1,-155.634,-505.854)">
                        <path d="M162.932,540.039L203.444,529.939L206.56,540.739L193.543,543.983L202.272,574.319L187.788,577.932L179.053,547.596L166.043,550.843L162.932,540.039Z" style="fill:rgb(26,24,24);fill-rule:nonzero;"/>
                    </g>
                    <g id="Group_256" transform="matrix(1,0,0,1,4.406,6.337)">
                        <g id="Path_250" transform="matrix(1,0,0,1,-147.788,-518.28)">
                            <path d="M186.381,518.28L189.821,518.28L193.812,522.824L193.674,520.924L193.674,518.28L197.192,518.28L197.192,526.6L193.756,526.6L189.756,522.068L189.823,524.032L189.897,526.6L186.379,526.6L186.381,518.28Z" style="fill:rgb(26,24,24);fill-rule:nonzero;"/>
                        </g>
                        <g id="Path_251" transform="matrix(1,0,0,1,-152.04,-518.28)">
                            <path d="M178.241,518.28L187.364,518.28L187.364,520.213L181.906,520.213L181.906,521.413L186.524,521.413L186.524,523.355L181.906,523.355L181.906,524.655L187.581,524.655L187.581,526.6L178.241,526.6L178.241,518.28Z" style="fill:rgb(26,24,24);fill-rule:nonzero;"/>
                        </g>
                        <g id="Path_252" transform="matrix(1,0,0,1,-156.441,-518.28)">
                            <path d="M169.818,518.28L178.943,518.28L178.943,520.213L173.485,520.213L173.485,521.413L178.1,521.413L178.1,523.355L173.484,523.355L173.484,524.655L179.163,524.655L179.163,526.6L169.817,526.6L169.818,518.28Z" style="fill:rgb(26,24,24);fill-rule:nonzero;"/>
                        </g>
                        <g id="Path_253" transform="matrix(1,0,0,1,-161.032,-518.28)">
                            <path d="M161.032,518.28L171.292,518.28L171.292,520.463L168,520.463L168,526.6L164.325,526.6L164.325,520.463L161.031,520.463L161.032,518.28Z" style="fill:rgb(26,24,24);fill-rule:nonzero;"/>
                        </g>
                    </g>
                </g>
            </g>
        </g>
    </g>
</svg>
